<svg width="683" height="683" viewBox="0 0 683 683" fill="none" xmlns="http://www.w3.org/2000/svg">
<g clip-path="url(#clip0_398_2)">
<path d="M258.667 1.46657C211.067 6.3999 163.6 25.0666 122.667 55.1999C107.467 66.2666 79.6004 93.8666 68.4004 108.8C33.2004 155.333 14.4004 208.133 12.4004 266C11.2004 300.533 15.4671 330.133 26.1338 362.4C39.4671 402.533 62.4004 439.467 92.8004 469.867C137.334 514.4 193.6 541.733 256.4 549.467C273.334 551.467 316.534 550.4 332.667 547.467C370.134 540.667 403.467 527.867 433.734 508.933L445.334 501.467L527.2 586.533C572.134 633.2 610.8 673.067 613.067 674.933C627.467 686.933 652.267 683.6 663.2 668.267C668.8 660.533 670.4 655.467 670.534 646.4C670.8 632 669.867 630.8 583.334 541.067C540.134 496.267 503.334 457.867 501.734 455.867L498.667 452.267L505.867 443.2C554.134 381.2 572.934 299.733 557.2 220C549.334 180.133 528.667 136.4 502.267 103.6C443.334 30.2666 351.734 -8.0001 258.667 1.46657ZM313.334 73.8666C399.867 85.4666 468.4 148.8 486.667 234.133C490.4 251.067 491.734 285.067 489.334 301.2C482.8 347.6 463.2 387.2 431.2 419.2C400.4 450.133 362.134 469.6 318.667 476.8C304.134 479.2 272.134 479.2 256.534 476.8C200.267 468.267 149.334 435.6 118 388C106.8 371.067 100.8 358.667 94.6671 340.133C87.8671 320 85.2004 304.933 84.4004 282.267C80.0004 168.533 171.734 73.0666 286 72.1332C293.334 72.1332 305.6 72.9332 313.334 73.8666Z" fill="white"/>
</g>
<defs>
<clipPath id="clip0_398_2">
<rect width="682.667" height="682.667" fill="white"/>
</clipPath>
</defs>
</svg>
